<svg width="256" height="43" viewBox="0 0 256 43" fill="none" xmlns="http://www.w3.org/2000/svg">
<path d="M49.954 18.2693C45.5978 17.3681 41.0639 18.0042 37.1239 20.0693C36.4304 20.4411 35.7623 20.8583 35.1239 21.3184C35.5098 18.7178 35.4625 16.0713 34.9833 13.4863C34.4639 10.776 33.3986 8.19948 31.8529 5.91333C30.3138 3.58512 28.2928 1.61459 25.9261 0.135254C25.7675 0.0465299 25.5888 0 25.4071 0C25.2254 0 25.0466 0.0465299 24.8881 0.135254C22.5218 1.61509 20.5009 3.58552 18.9613 5.91333C17.4146 8.19897 16.3493 10.7757 15.8309 13.4863C15.3512 16.0712 15.3039 18.7179 15.6903 21.3184C15.0521 20.8579 14.3839 20.4403 13.6903 20.0684C9.75011 18.0039 5.2164 17.3678 0.860222 18.2683C0.602556 18.3161 0.372064 18.4583 0.213738 18.6671C0.0554115 18.8759 -0.0193052 19.1363 0.0042649 19.3973C0.531291 23.4916 1.87977 27.4371 3.96911 30.9973C5.84537 34.2512 8.47698 37.0057 11.642 39.0283C15.4752 41.3589 19.8651 42.6145 24.3509 42.6633H26.4623C30.9488 42.6147 35.3393 41.3591 39.1732 39.0283C42.3378 37.0055 44.969 34.251 46.8451 30.9973C48.934 27.4369 50.2825 23.4915 50.8099 19.3973C50.8337 19.1363 50.7593 18.8757 50.6009 18.6669C50.4426 18.458 50.2117 18.3159 49.954 18.2683" fill="white"/>
<path d="M80.6416 39.9424L68.7417 26.2423V39.9424H61.3813V7.64233H68.7417V20.8353L79.8193 7.64233H88.7437L75.7437 22.9484L90.7754 39.9374L80.6416 39.9424Z" fill="white"/>
<path d="M96.5723 29.4124C96.5723 33.3664 97.6294 34.8923 100.525 34.8923C103.421 34.8923 104.479 33.3664 104.479 29.4124V19.8604H111.408V31.0953C111.408 37.8283 108.042 40.5294 100.525 40.5294C93.0084 40.5294 89.6431 37.8293 89.6431 31.0953V19.8604H96.5732L96.5723 29.4124Z" fill="white"/>
<path d="M128.866 20.8364L126.595 25.3773C125.21 24.6563 123.69 24.2301 122.132 24.1254C120.606 24.1254 119.979 24.3994 119.979 25.3384C119.979 26.3954 121.388 26.7083 123.112 27.2563C125.773 28.0783 129.219 29.5664 129.219 33.6764C129.219 39.5874 123.819 40.5273 119.705 40.5273C116.885 40.5651 114.141 39.6093 111.954 37.8274L114.773 33.0903C114.773 33.0903 117.513 35.4004 119.745 35.4004C120.723 35.4004 121.897 35.2834 121.897 33.9524C121.897 32.5044 119.706 32.3864 117.434 31.2124C115.398 30.1554 113.364 28.7464 113.364 25.7324C113.364 21.6224 116.846 19.2734 122.132 19.2734C124.467 19.2749 126.77 19.8095 128.866 20.8364V20.8364Z" fill="white"/>
<path d="M130.508 6.27734H137.437V21.9773H137.514C138.999 20.3509 141.068 19.38 143.268 19.2773C146.949 19.2773 152.078 21.1173 152.078 26.7153V39.9463H145.149V28.5942C145.176 28.0993 145.104 27.6039 144.937 27.1372C144.77 26.6705 144.511 26.2421 144.175 25.8772C143.84 25.5123 143.434 25.2183 142.983 25.0126C142.532 24.8068 142.045 24.6935 141.549 24.6793C140.504 24.7154 139.508 25.1339 138.75 25.8555C137.992 26.5771 137.526 27.5516 137.439 28.5942V39.9463H130.51L130.508 6.27734Z" fill="white"/>
<path d="M154.23 19.8595H161.16V21.9735H161.238C162.723 20.347 164.792 19.3759 166.992 19.2734C169.655 19.2734 172.592 20.2525 174 22.9535C176.113 20.4095 178.463 19.2734 180.654 19.2734C184.334 19.2734 188.483 21.1134 188.483 26.7114V39.9425H181.557V28.5905C181.557 26.5905 180.5 24.8324 178.035 24.8324C177.615 24.8148 177.197 24.8832 176.804 25.0333C176.412 25.1835 176.055 25.4121 175.754 25.7054C175.453 25.9988 175.216 26.3504 175.056 26.7389C174.896 27.1274 174.817 27.5445 174.824 27.9645V39.9435H167.896V28.5914C167.896 26.5914 166.839 24.8335 164.373 24.8335C163.933 24.8175 163.496 24.8949 163.088 25.0605C162.681 25.2262 162.314 25.4763 162.01 25.7944C161.707 26.1125 161.474 26.4914 161.328 26.906C161.182 27.3206 161.125 27.7614 161.162 28.1995V39.9435H154.233L154.23 19.8595Z" fill="white"/>
<path d="M201.283 19.2734C207.937 19.2734 213.262 23.6574 213.262 29.9204C213.262 36.1054 208.212 40.5294 201.283 40.5294C194.041 40.5294 189.183 36.1054 189.183 29.9204C189.186 23.6574 194.512 19.2734 201.283 19.2734ZM201.244 34.6184C201.865 34.6389 202.483 34.531 203.061 34.3015C203.638 34.072 204.161 33.7259 204.598 33.2847C205.035 32.8435 205.377 32.3167 205.601 31.7374C205.825 31.1582 205.928 30.5389 205.901 29.9183C205.921 29.2976 205.815 28.6794 205.589 28.101C205.363 27.5225 205.022 26.9958 204.586 26.553C204.151 26.1101 203.631 25.7602 203.056 25.5244C202.482 25.2887 201.865 25.172 201.244 25.1814C200.62 25.1675 199.999 25.2809 199.42 25.5145C198.841 25.7482 198.316 26.0971 197.876 26.5403C197.437 26.9835 197.092 27.5115 196.863 28.0923C196.634 28.673 196.525 29.2943 196.544 29.9183C196.512 30.5439 196.612 31.1692 196.837 31.7538C197.062 32.3384 197.407 32.8693 197.85 33.3123C198.293 33.7552 198.824 34.1002 199.409 34.3252C199.993 34.5502 200.619 34.6501 201.244 34.6184V34.6184Z" fill="white"/>
<path d="M235.295 30.8603C235.288 31.4242 235.396 31.9835 235.614 32.5035C235.833 33.0235 236.156 33.4929 236.564 33.8823C236.972 34.2717 237.455 34.5728 237.985 34.7667C238.514 34.9606 239.078 35.0431 239.641 35.0092C241.872 35.0092 242.85 34.5793 244.534 32.7783L249.544 35.2833C247.274 39.0833 243.595 40.5283 239.132 40.5283C236.265 40.5747 233.495 39.4856 231.427 37.4985C229.359 35.5114 228.161 32.7873 228.093 29.9202C228.153 27.0469 229.347 24.314 231.416 22.3189C233.485 20.3238 236.259 19.2288 239.132 19.2733C245.238 19.2733 249.898 22.8733 249.898 29.9202C249.905 30.2338 249.892 30.5474 249.859 30.8592L235.295 30.8603ZM243.125 27.0243C243.044 26.0925 242.6 25.2298 241.889 24.622C241.178 24.0143 240.257 23.7101 239.324 23.7752C236.936 23.7752 235.604 25.1843 235.488 27.0243H243.125Z" fill="white"/>
<path d="M231.472 20.3544C230.219 19.6528 228.808 19.2809 227.372 19.2734C223.419 19.2734 221.226 22.7573 221.226 22.7573H221.147V19.8574H214.218V39.9393H221.147V29.3704C221.147 28.8614 221.657 25.2993 225.258 25.2993C225.941 25.2955 226.62 25.3967 227.272 25.5994C227.289 25.5634 227.307 25.5273 227.324 25.4913C228.167 23.4057 229.611 21.6177 231.472 20.3544V20.3544Z" fill="white"/>
<path d="M255.91 19.3884C255.912 19.6216 255.867 19.8529 255.778 20.0685C255.689 20.284 255.558 20.4795 255.392 20.6434C255.226 20.8067 255.029 20.9351 254.812 21.021C254.595 21.1068 254.363 21.1484 254.13 21.1434C253.897 21.1477 253.665 21.1058 253.448 21.02C253.231 20.9342 253.033 20.8062 252.866 20.6434C252.7 20.4795 252.568 20.2843 252.478 20.0691C252.387 19.8538 252.341 19.6228 252.34 19.3894C252.342 19.1575 252.391 18.9283 252.482 18.7151C252.573 18.5019 252.706 18.309 252.872 18.1474C253.038 17.9851 253.235 17.8573 253.451 17.7715C253.666 17.6856 253.897 17.6435 254.129 17.6474C254.361 17.6421 254.591 17.6832 254.807 17.7682C255.023 17.8532 255.219 17.9804 255.385 18.1424C255.551 18.3042 255.682 18.4974 255.772 18.7107C255.862 18.9239 255.909 19.1529 255.909 19.3844L255.91 19.3884ZM252.785 19.3884C252.78 19.5696 252.811 19.7501 252.876 19.919C252.942 20.088 253.042 20.2418 253.168 20.3714C253.295 20.5011 253.446 20.6038 253.614 20.6734C253.781 20.743 253.961 20.7781 254.142 20.7765C254.32 20.7755 254.497 20.7387 254.661 20.6683C254.824 20.5979 254.972 20.4952 255.095 20.3664C255.219 20.238 255.315 20.0861 255.379 19.9196C255.443 19.7532 255.473 19.5756 255.467 19.3974C255.474 19.217 255.445 19.0371 255.381 18.8683C255.317 18.6994 255.22 18.5451 255.095 18.4144C254.971 18.2839 254.821 18.1798 254.656 18.1084C254.49 18.0369 254.312 17.9994 254.131 17.9984C253.951 17.9989 253.773 18.0355 253.607 18.1059C253.441 18.1763 253.291 18.2792 253.165 18.4084C253.039 18.538 252.941 18.6915 252.876 18.8598C252.811 19.0282 252.78 19.2079 252.785 19.3884V19.3884ZM253.855 20.2994H253.455V18.5614C253.675 18.5226 253.899 18.5049 254.122 18.5084C254.33 18.492 254.539 18.5362 254.722 18.6355C254.777 18.6823 254.821 18.7407 254.851 18.8066C254.88 18.8725 254.894 18.9443 254.892 19.0165C254.884 19.1132 254.844 19.2046 254.779 19.2768C254.714 19.349 254.628 19.3981 254.532 19.4165V19.4364C254.618 19.4716 254.693 19.5297 254.749 19.6045C254.805 19.6792 254.839 19.7677 254.848 19.8604C254.867 20.0115 254.91 20.1584 254.976 20.2954H254.542C254.475 20.1617 254.428 20.0188 254.403 19.8714C254.372 19.6804 254.265 19.5964 254.043 19.5964H253.853L253.855 20.2994ZM253.866 19.3144H254.056C254.279 19.3144 254.456 19.2404 254.456 19.0604C254.456 18.9014 254.339 18.7954 254.084 18.7954C254.01 18.7939 253.935 18.801 253.862 18.8164L253.866 19.3144Z" fill="white"/>
</svg>
