<svg width="234" height="34" viewBox="0 0 234 34" fill="none" xmlns="http://www.w3.org/2000/svg">
<path d="M230.218 10.037C230.762 10.037 231.252 9.99504 231.252 9.33704C231.252 8.81004 230.77 8.71604 230.324 8.71604H229.446V10.034L230.218 10.037ZM229.446 12.43H228.804V8.16603H230.429C231.434 8.16603 231.929 8.53903 231.929 9.38003C231.938 9.5305 231.917 9.68124 231.865 9.82307C231.814 9.9649 231.735 10.0948 231.632 10.205C231.529 10.3151 231.405 10.4031 231.267 10.4636C231.129 10.5242 230.98 10.556 230.829 10.557L232.045 12.431H231.322L230.197 10.582H229.455L229.446 12.43ZM230.23 13.382C230.842 13.3957 231.444 13.227 231.959 12.8973C232.475 12.5677 232.88 12.092 233.124 11.531C233.368 10.9699 233.44 10.3489 233.33 9.74705C233.22 9.14521 232.933 8.58979 232.506 8.15159C232.079 7.71339 231.531 7.41224 230.932 7.28654C230.333 7.16083 229.711 7.21625 229.143 7.44574C228.576 7.67523 228.09 8.06839 227.747 8.57512C227.404 9.08185 227.22 9.67919 227.218 10.291C227.204 10.6941 227.272 11.0958 227.417 11.4719C227.562 11.8481 227.782 12.1909 228.064 12.4798C228.345 12.7686 228.682 12.9974 229.055 13.1525C229.427 13.3076 229.827 13.3857 230.23 13.382V13.382ZM226.471 10.294C226.463 9.55205 226.676 8.82442 227.082 8.20345C227.488 7.58247 228.07 7.09612 228.753 6.80608C229.436 6.51604 230.189 6.43537 230.918 6.57431C231.647 6.71325 232.318 7.06554 232.847 7.5865C233.375 8.10745 233.737 8.7736 233.886 9.50046C234.036 10.2273 233.966 10.9821 233.685 11.6692C233.405 12.3562 232.927 12.9445 232.312 13.3595C231.697 13.7745 230.972 13.9974 230.23 14C229.738 14.0088 229.25 13.9194 228.793 13.7369C228.337 13.5544 227.921 13.2826 227.571 12.9374C227.221 12.5923 226.943 12.1806 226.755 11.7267C226.566 11.2728 226.469 10.7857 226.471 10.294Z" fill="white"/>
<path d="M33.542 6.61597V29.128H46.213L44.497 33.552H28.023V6.61597H33.542Z" fill="white"/>
<path d="M139.556 18.821C143.098 17.443 147.198 14.513 147.198 9.381C147.198 3.188 141.798 0 134.086 0H124.078V33.555H129.965V19.723H133.47L142.727 33.55H149.489L139.556 18.821ZM132.973 15.478H129.961V4.009L133.611 4.023C138.553 4.023 141.116 5.573 141.116 9.659C141.116 14.131 137.927 15.485 132.973 15.485" fill="white"/>
<path d="M56.62 6.61591L57.593 8.71591L47.146 33.5409H52.284L54.484 28.0819H66.325L68.701 33.5409H74.746L62.897 6.60791L56.62 6.61591ZM56.211 23.9479L60.269 14.0039L64.469 23.9509L56.211 23.9479Z" fill="white"/>
<path d="M17.708 15.5609C19.3612 15.1693 20.8325 14.228 21.8809 12.8911C22.9294 11.5541 23.4928 9.90087 23.479 8.20194C23.479 0.0129395 13.705 0.0129395 10.5 0.0129395H0V33.5569H10.1C15.848 33.5569 25.383 32.0619 25.383 23.8699C25.383 19.2949 22.717 16.4029 17.708 15.5699V15.5609ZM9.739 4.02894C14.139 4.02894 17.254 4.54294 17.254 8.59094C17.254 13.9399 11.778 13.6509 9.038 13.6509H6.051V4.01594L9.739 4.02894ZM9.877 29.1289L6.052 29.1189V18.0369H9.533C14.833 18.0369 19.167 18.8089 19.167 23.6119C19.167 28.2269 15.658 29.1339 9.879 29.1339" fill="white"/>
<path d="M98.701 6.58008H104.22V33.5561H98.701V6.58008ZM115.892 6.59308L104.539 19.5271L115.918 33.5501H122.399L110.8 19.1431L121.488 6.59808L115.892 6.59308Z" fill="white"/>
<path d="M73.611 19.2059C73.611 28.0369 78.977 33.9789 86.425 33.9789C89.6592 34.1256 92.8487 33.1807 95.481 31.2959L94.187 28.5889C92.2342 29.6558 90.0422 30.2084 87.817 30.1949C83.027 30.1949 79.581 26.6499 79.581 19.3389C79.581 13.4729 81.749 9.93089 85.996 9.93089C87.0408 9.83532 88.0874 10.094 88.9673 10.6654C89.8472 11.2368 90.5093 12.0876 90.847 13.0809L95.647 11.7349C95.147 9.90789 92.704 6.19189 85.661 6.19189C79.196 6.19189 73.607 10.5679 73.607 19.1979" fill="white"/>
<path d="M201.147 6.58008H206.664V33.5561H201.147V6.58008ZM218.328 6.59308L206.984 19.5271L218.36 33.5501H224.845L213.243 19.1431L223.929 6.59608L218.328 6.59308Z" fill="white"/>
<path d="M175.878 19.206C175.878 28.037 181.243 33.979 188.692 33.979C191.926 34.1256 195.115 33.1806 197.747 31.296L196.455 28.585C194.503 29.6517 192.312 30.2044 190.087 30.191C185.302 30.191 181.851 26.646 181.851 19.335C181.851 13.469 184.019 9.927 188.266 9.927C189.312 9.83218 190.36 10.0924 191.24 10.6656C192.12 11.2389 192.782 12.0918 193.118 13.087L197.918 11.741C197.418 9.914 194.975 6.198 187.932 6.198C181.469 6.198 175.878 10.574 175.878 19.204" fill="white"/>
<path d="M161.059 6.19312C153.732 6.19312 148.44 10.6091 148.44 20.1081C148.44 29.5721 153.513 33.9731 161.059 33.9731C168.605 33.9731 173.678 29.5731 173.678 20.1081C173.678 10.6081 168.378 6.19312 161.059 6.19312ZM161.059 30.2021C155.423 30.2021 154.175 25.6351 154.175 20.1081C154.175 14.5811 155.452 9.77811 161.059 9.77811C166.666 9.77811 167.941 14.5781 167.941 20.1081C167.941 25.6381 166.693 30.2021 161.059 30.2021Z" fill="white"/>
</svg>
