<svg width="254" height="53" viewBox="0 0 254 53" fill="none" xmlns="http://www.w3.org/2000/svg">
<path d="M93.236 19.8281C91.3432 18.1032 88.8817 17.1353 86.321 17.1091C80.497 17.1091 76.954 21.5401 76.954 27.1371C76.954 31.6071 79.554 36.2311 86.321 36.2311C88.5683 36.2915 90.7575 35.5129 92.462 34.0471V29.2401H85.505V24.6541H97.165V36.1201C95.8494 37.708 94.1887 38.9747 92.3095 39.8238C90.4304 40.673 88.3822 41.0821 86.321 41.0201C76.1 41.0201 71.94 34.2961 71.94 27.1441C71.94 19.4871 76.72 12.4141 86.321 12.4141C90.1033 12.4157 93.7325 13.9087 96.421 16.5691L93.236 19.8281Z" fill="white"/>
<path d="M130.5 40.3901V13.1831H135.6V40.3901H130.5Z" fill="white"/>
<path d="M162.019 40.3901H167.619L155.419 13.1831H149.819L137.619 40.3901H143.177L146.042 33.8691H159.172L162.019 40.3901ZM148.057 29.2571L152.608 18.8971L157.142 29.2571H148.057Z" fill="white"/>
<path d="M197.578 19.8281C195.685 18.1023 193.223 17.1341 190.661 17.1081C184.837 17.1081 181.295 21.5391 181.295 27.1361C181.295 31.6061 183.895 36.2301 190.661 36.2301C192.908 36.2905 195.098 35.5119 196.802 34.0461V29.2401H189.845V24.6541H201.505V36.1201C200.189 37.708 198.529 38.9747 196.65 39.8238C194.77 40.673 192.722 41.0821 190.661 41.0201C180.44 41.0201 176.28 34.2961 176.28 27.1441C176.28 19.4871 181.06 12.4141 190.661 12.4141C194.444 12.4165 198.073 13.9106 200.761 16.5721L197.578 19.8281Z" fill="white"/>
<path d="M218.52 13.1431C214.245 13.1431 209.969 13.1811 205.696 13.1811V40.3881H210.825V32.3801H218.525C231.859 32.3801 231.825 13.1431 218.525 13.1431H218.52ZM218.52 27.6781H210.82V18.0371H218.52C219.798 18.0371 221.024 18.5448 221.928 19.4487C222.832 20.3525 223.339 21.5784 223.339 22.8566C223.339 24.1348 222.832 25.3606 221.928 26.2645C221.024 27.1683 219.798 27.6761 218.52 27.6761V27.6781Z" fill="white"/>
<path d="M248.753 19.7511C247.996 18.7695 247.015 17.9825 245.893 17.4554C244.771 16.9283 243.54 16.6762 242.301 16.7201C238.492 16.7201 236.666 18.3141 236.666 20.3351C236.666 22.7051 239.466 23.3661 242.729 23.7551C248.407 24.4551 253.69 25.9391 253.69 32.4231C253.69 38.4861 248.326 41.0891 242.263 41.0891C236.705 41.0891 232.429 39.3781 230.408 34.4041L234.683 32.1881C235.883 35.1821 239.037 36.5021 242.34 36.5021C245.565 36.5021 248.601 35.3751 248.601 32.4251C248.601 29.8601 245.919 28.8101 242.301 28.4251C236.743 27.7641 231.613 26.2881 231.613 20.1851C231.613 14.5851 237.133 12.2951 242.146 12.2571C246.382 12.2571 250.774 13.4571 252.834 17.6571L248.753 19.7511Z" fill="white"/>
<path d="M123.083 40.3901H128.683L116.483 13.1831H110.883L98.683 40.3901H104.23L107.095 33.8691H120.23L123.083 40.3901ZM109.13 29.2571L113.682 18.8971L118.216 29.2571H109.13Z" fill="white"/>
<path d="M29.438 52.227V42.827L47.279 33.907L40.738 30.64L29.438 36.291V32.36L42.117 26.022L36.985 23.461L29.438 27.227V23.3L37.51 19.265L29.438 15.237V0L41.099 17.472L44.394 15.825L58.877 37.507L29.438 52.226V52.227Z" fill="white"/>
<path opacity="0.597" d="M29.438 52.227L0 37.507L18.522 9.776L21.817 11.424L29.439 0L41.1 17.472L44.4 15.825L58.877 37.507L29.439 52.227H29.438ZM18.136 30.64L11.6 33.909L29.439 42.83L47.28 33.909L40.742 30.64L29.442 36.292L18.142 30.64H18.136ZM21.891 23.46L16.759 26.027L29.438 32.366L42.117 26.027L36.983 23.46L29.439 27.227L21.892 23.453L21.891 23.46ZM29.438 15.236L21.367 19.272L29.438 23.308L37.51 19.272L29.438 15.236Z" fill="white"/>
<path opacity="0.502" d="M29.439 36.2919V42.8299L47.28 33.9089L40.742 30.6399L29.439 36.2919Z" fill="white"/>
<path opacity="0.502" d="M37.511 19.2679L29.439 15.2319V23.3079L37.511 19.2679Z" fill="white"/>
<path opacity="0.502" d="M29.439 27.2391V32.3731L42.118 26.0321L36.984 23.4651L29.439 27.2391Z" fill="white"/>
</svg>
