<svg width="208" height="63" viewBox="0 0 208 63" fill="none" xmlns="http://www.w3.org/2000/svg">
<path fill-rule="evenodd" clip-rule="evenodd" d="M52.263 48.78V54.106H46.126V48.78H43V62.291H46.127V56.75H52.264V62.291H55.391V48.78H52.263ZM70.184 59.78V56.653H76.456V54.222H70.185V51.291H77.285V48.78H67.077V62.291H77.537V59.78H70.184ZM98.604 62.291H101.886L95.845 48.781H92.757L86.735 62.291H89.935L91.135 59.396H97.407L98.604 62.291ZM92.139 57.021L94.282 51.849L96.424 57.021H92.139ZM111.779 62.291H121.679V59.742H114.906V48.78H111.779V62.291ZM134.718 62.291H137.844V51.328H142.169V48.78H130.394V51.328H134.718V62.291ZM161.595 48.781V54.107H155.457V48.78H152.331V62.291H155.457V56.75H161.595V62.291H164.721V48.78L161.595 48.781Z" fill="white"/>
<path fill-rule="evenodd" clip-rule="evenodd" d="M109.54 21.5391C109.716 20.3352 110.171 19.189 110.868 18.1921C111.522 17.257 112.407 16.5078 113.438 16.0181C114.551 15.4942 115.769 15.2321 116.999 15.2521C118.218 15.2362 119.424 15.5017 120.524 16.0281C121.545 16.5312 122.425 17.2799 123.085 18.2071C123.771 19.2024 124.221 20.3403 124.403 21.5351L109.54 21.5391ZM128.125 12.8261C126.691 11.466 124.996 10.4113 123.142 9.72609C119.07 8.25445 114.608 8.27961 110.553 9.79709C108.652 10.5183 106.915 11.6136 105.445 13.0181C103.993 14.4068 102.843 16.0813 102.07 17.9361C100.437 21.9261 100.437 26.3981 102.07 30.3881C102.862 32.2579 104.048 33.9349 105.547 35.3051C107.12 36.7355 108.964 37.8356 110.97 38.5401C113.251 39.3366 115.654 39.7317 118.07 39.7081C120.532 39.7512 122.981 39.3295 125.287 38.4651C127.3 37.6922 129.095 36.4445 130.522 34.8281L125.867 29.7801C124.901 30.7272 123.757 31.4747 122.502 31.9801C121.157 32.4813 119.73 32.7255 118.295 32.7001C116.895 32.7185 115.505 32.4676 114.2 31.9611C113.063 31.5162 112.05 30.8045 111.246 29.8861C110.46 28.95 109.914 27.8361 109.656 26.6411H132.486C132.514 26.2681 132.552 25.8661 132.586 25.4411C132.62 25.0161 132.652 24.6281 132.652 24.2821C132.678 22.0429 132.268 19.82 131.446 17.7371C130.699 15.8823 129.568 14.2069 128.127 12.8211L128.125 12.8261Z" fill="white"/>
<path fill-rule="evenodd" clip-rule="evenodd" d="M94.854 32.4671C94.2439 32.6626 93.6067 32.7605 92.966 32.7571C92.4595 32.7865 91.9524 32.7112 91.4764 32.5358C91.0003 32.3605 90.5655 32.089 90.199 31.7381C89.4952 30.9169 89.1397 29.8535 89.208 28.7741V16.4911H96.724V9.76011H89.203V2.41211H80.454V9.76011H75.797V16.4911H80.454V28.8911C80.3933 30.9712 80.8528 33.0336 81.791 34.8911C82.6581 36.4734 84.0076 37.7378 85.643 38.5001C87.5534 39.3611 89.6345 39.7766 91.729 39.7151C92.6146 39.7157 93.4989 39.6445 94.373 39.5021C95.2015 39.3691 96.0153 39.1564 96.803 38.8671C97.5312 38.6053 98.221 38.2471 98.854 37.8021L96.498 31.6321C96.0026 32.0042 95.4454 32.2859 94.852 32.4641" fill="white"/>
<path fill-rule="evenodd" clip-rule="evenodd" d="M70.453 23.942C69.5612 23.2976 68.578 22.7903 67.536 22.437C66.4432 22.0654 65.3245 21.7749 64.189 21.568C63.039 21.353 61.927 21.168 60.842 21.007C59.757 20.846 58.785 20.661 57.926 20.445C57.1873 20.2918 56.4853 19.9967 55.859 19.576C55.614 19.4072 55.4143 19.1807 55.2774 18.9165C55.1405 18.6524 55.0706 18.3586 55.074 18.061C55.0713 17.5268 55.2793 17.0129 55.653 16.631C56.1667 16.1441 56.7985 15.7994 57.486 15.631C58.5299 15.3571 59.6071 15.2312 60.686 15.257C62.1211 15.2518 63.5519 15.415 64.949 15.743C66.5012 16.1186 67.9931 16.71 69.381 17.5L72.297 11.274C71.2359 10.6715 70.1096 10.1917 68.94 9.84404C67.6193 9.43991 66.2693 9.13901 64.902 8.94404C63.506 8.73965 62.0969 8.63672 60.686 8.63604C58.1177 8.58419 55.5623 9.01219 53.151 9.89804C51.2751 10.5746 49.6238 11.7585 48.381 13.318C47.2786 14.779 46.6932 16.565 46.717 18.395C46.6829 19.6946 46.9517 20.9843 47.502 22.162C47.9799 23.1492 48.6885 24.0067 49.568 24.662C50.4582 25.3112 51.4417 25.8217 52.485 26.176C53.5764 26.5523 54.6954 26.8428 55.832 27.045C56.982 27.251 58.104 27.429 59.179 27.578C60.254 27.727 61.236 27.895 62.096 28.092C62.829 28.233 63.5295 28.5087 64.162 28.905C64.4037 29.0594 64.6024 29.2723 64.7396 29.5241C64.8769 29.7759 64.9482 30.0583 64.947 30.345C64.9618 30.8829 64.7675 31.4055 64.405 31.803C63.9151 32.2826 63.2993 32.6134 62.629 32.757C61.5701 33.0086 60.483 33.1219 59.395 33.094C58.1299 33.088 56.8683 32.9621 55.627 32.718C54.391 32.4874 53.1774 32.1494 52 31.708C50.9194 31.3031 49.8828 30.7895 48.906 30.175L45.989 36.457C47.0841 37.1513 48.2593 37.71 49.489 38.121C50.9686 38.6338 52.4886 39.0215 54.033 39.28C55.6947 39.5613 57.3767 39.7051 59.062 39.71C61.6866 39.7592 64.2987 39.3382 66.775 38.467C68.6686 37.8082 70.3463 36.6447 71.627 35.102C72.7337 33.6782 73.3252 31.9213 73.305 30.118C73.3381 28.8334 73.0692 27.5589 72.52 26.397C72.0371 25.4244 71.3284 24.5816 70.453 23.939" fill="white"/>
<path fill-rule="evenodd" clip-rule="evenodd" d="M15.7 23.951L21.932 8.915L28.158 23.948L15.7 23.951ZM17.5 0L0 39.263H9.311L12.788 30.849H31.018L34.5 39.263H44.036L26.475 0H17.5Z" fill="white"/>
<path fill-rule="evenodd" clip-rule="evenodd" d="M196.057 23.8379L207.272 9.08691H197.957L191.394 17.8929L185.004 9.08691H175.188L186.406 24.0629L174.795 39.2629H184.331L191.174 30.0079L197.793 39.2629H207.72L196.057 23.8379Z" fill="white"/>
<path fill-rule="evenodd" clip-rule="evenodd" d="M161.216 17.915C160.553 18.9687 159.579 19.7905 158.429 20.267C156.955 20.8511 155.377 21.131 153.792 21.09H146.392V7.40401H153.792C156.568 7.41301 158.653 8.02101 160.055 9.20401C160.763 9.8305 161.319 10.6096 161.682 11.4825C162.045 12.3554 162.204 13.2993 162.149 14.243C162.189 15.5304 161.866 16.8031 161.216 17.915V17.915ZM167.639 23.767C168.838 22.5859 169.774 21.1654 170.387 19.598C171.045 17.8928 171.372 16.0777 171.35 14.25C171.375 12.207 170.971 10.1815 170.163 8.30501C169.387 6.5717 168.224 5.03965 166.763 3.82701C165.18 2.53091 163.352 1.56768 161.388 0.995007C159.089 0.312895 156.7 -0.0211407 154.302 0.00400648H137.302V39.263H146.389V28.326H154.747L162.319 39.264H172.079L163.273 26.643C164.897 25.968 166.379 24.9911 167.639 23.764V23.767Z" fill="white"/>
</svg>
