<svg width="251" height="43" viewBox="0 0 251 43" fill="none" xmlns="http://www.w3.org/2000/svg">
<path opacity="0.5" d="M17.3308 21.89L31.4427 2.67082C28.3429 2.67082 25.5221 2.68942 22.7043 2.65692C22.3982 2.63372 22.0916 2.69542 21.8181 2.83512C21.5447 2.97482 21.3151 3.18722 21.1544 3.44892C17.2848 8.86742 13.3971 14.2719 9.49127 19.662C9.30537 19.92 9.09297 20.158 8.89307 20.405L8.68697 20.317V2.67862C5.90637 2.67862 3.22977 2.66152 0.553074 2.71892C0.380974 2.71892 0.0601717 3.30322 0.0570717 3.61782C0.0213717 6.93002 0.0352745 10.2437 0.0352745 13.5574C0.0352745 22.311 0.0508719 31.071 0.0136719 39.817C0.0136719 40.747 0.267773 41.023 1.18847 40.978C2.92897 40.905 4.67577 40.958 6.41937 40.958H8.80157V24.056C9.15647 24.573 9.35497 24.859 9.54557 25.151C12.8175 30.127 16.111 35.096 19.3627 40.093C19.5249 40.393 19.7723 40.638 20.0735 40.796C20.3748 40.955 20.7164 41.021 21.0552 40.986C23.6389 40.935 26.2226 40.969 28.8047 40.964C29.1395 40.964 29.4727 40.93 29.9919 40.901L17.3308 21.89ZM85.992 40.918V19.734H91.32V12.7034H86.007C85.966 11.9573 85.971 11.2093 86.021 10.4638C86.053 9.55972 86.439 8.70432 87.095 8.08232C87.752 7.46032 88.627 7.12152 89.532 7.13922C90.331 7.09452 91.133 7.10962 91.931 7.18422C92.523 7.22292 92.748 7.00132 92.742 6.40922C92.724 4.56172 92.724 2.71422 92.742 0.86672C92.742 0.26542 92.447 0.0577169 91.911 0.0592169C90.142 -0.0341831 88.37 -0.0170822 86.604 0.110418C84.528 0.262618 82.566 1.11852 81.042 2.53692C79.518 3.95532 78.524 5.85112 78.224 7.91112C77.903 9.42842 77.848 11.0016 77.652 12.7158C76.841 12.7158 75.978 12.6801 75.121 12.7375C74.851 12.756 74.374 13.0196 74.37 13.1823C74.321 15.3305 74.336 17.48 74.336 19.765H77.884V40.909L85.992 40.918ZM110.149 41.821C109.938 41.544 109.82 41.377 109.694 41.217C107.445 38.52 106.071 35.201 105.756 31.704C105.499 27.82 105.66 23.911 105.643 20.011C105.643 19.96 105.719 19.906 105.841 19.751C107.43 19.751 109.096 19.773 110.764 19.729C111.061 19.729 111.602 19.439 111.605 19.275C111.663 17.128 111.643 14.9817 111.643 12.7049H105.544V5.16462H97.509V12.722C96.667 12.722 95.941 12.7499 95.215 12.722C94.566 12.691 94.265 12.894 94.285 13.6039C94.319 15.3801 94.315 17.159 94.285 18.943C94.274 19.594 94.555 19.805 95.164 19.776C95.922 19.746 96.681 19.776 97.565 19.776V21.136C97.616 24.898 97.447 28.678 97.777 32.414C98.329 38.672 102.788 42.345 110.15 41.826L110.149 41.821ZM32.1541 12.8677C32.1161 12.9713 32.0876 13.0782 32.0689 13.1869C32.0616 22.184 32.0523 31.18 32.041 40.175C32.041 40.864 32.3401 40.98 32.9259 40.974C35.0524 40.952 37.1804 40.93 39.2991 40.983C40.0989 41.002 40.3004 40.733 40.2926 39.965C40.257 36.445 40.2679 32.922 40.2818 29.401C40.2351 28.496 40.2818 27.588 40.4213 26.693C40.7535 25.237 41.5129 23.913 42.6023 22.891C43.6916 21.87 45.0613 21.196 46.536 20.958C47.259 20.768 47.526 20.493 47.52 19.8C47.504 18.232 47.52 16.6618 47.52 15.0933V12.7685C46.021 12.9926 44.5933 13.5559 43.3451 14.4154C42.097 15.2749 41.0615 16.4079 40.3175 17.728L40.1051 17.593V12.8196H32.7819C32.5943 12.8196 32.3912 12.8413 32.1619 12.8677H32.1541ZM118.163 23.717C118.163 25.439 118.132 27.068 118.163 28.698C118.191 31.468 118.98 34.177 120.446 36.527C120.86 37.237 121.44 37.836 122.136 38.272C122.833 38.708 123.626 38.968 124.445 39.029C125.265 39.09 126.087 38.95 126.841 38.623C127.594 38.295 128.257 37.788 128.771 37.147C131.06 34.232 132.673 30.843 133.492 27.228C135.3 20.648 137.166 14.0843 139.014 7.51582C139.789 4.76012 139.612 4.46872 136.832 4.04562C135.867 3.82402 134.868 3.79692 133.893 3.96582C132.918 4.13472 131.986 4.49622 131.153 5.02922C130.319 5.56232 129.6 6.25612 129.037 7.07032C128.475 7.88442 128.08 8.80262 127.876 9.77102C127.362 12.2542 127.757 14.8397 128.991 17.056C129.428 17.872 129.791 18.729 130.352 19.918C127.91 20.107 125.753 20.315 123.591 20.4C123.281 20.413 122.799 19.91 122.638 19.538C121.139 16.5907 120.746 13.2037 121.529 9.99112C121.978 8.26632 122.939 6.71822 124.286 5.55142C125.633 4.38462 127.302 3.65422 129.073 3.45662C132.868 2.95632 136.687 2.65472 140.514 2.55302C142.529 2.44302 144.558 2.54222 146.581 2.55302C148.117 2.56542 148.422 2.98392 148.007 4.48892C146.623 9.48782 145.238 14.4868 143.853 19.486C143.763 19.807 143.709 20.137 143.606 20.591C145.818 20.591 147.904 20.616 149.98 20.557C150.211 20.557 150.552 20.106 150.634 19.807C151.667 16.1194 152.568 12.3918 153.704 8.73872C154.25 7.13242 155.003 5.60422 155.944 4.19282C156.331 3.62592 156.863 3.17362 157.485 2.88292C158.107 2.59222 158.796 2.47412 159.479 2.54062C161.669 2.58562 163.861 2.55302 166.08 2.55302C161.506 7.82272 160.579 14.4873 158.795 20.792C157.556 25.214 156.471 29.683 155.299 34.122C155.089 34.738 155.064 35.402 155.227 36.032C155.389 36.663 155.733 37.232 156.215 37.669C156.937 38.33 156.731 38.774 156.06 39.238C154.174 40.446 152.024 41.18 149.794 41.38C148.898 41.499 147.986 41.504 147.086 41.595C146.127 41.691 145.536 41.237 145.566 40.324C145.578 39.112 145.722 37.905 145.995 36.724C147.029 32.607 148.165 28.509 149.267 24.411C149.327 24.182 149.358 23.946 149.439 23.559C147.246 23.559 145.133 23.539 143.016 23.59C142.808 23.59 142.511 24.01 142.424 24.278C141.853 26.07 141.33 27.875 140.789 29.676C140.02 32.57 138.199 35.072 135.682 36.693C131.973 39.25 127.817 41.088 123.43 42.11C121.149 42.762 118.708 42.548 116.574 41.511C114.441 40.473 112.766 38.685 111.87 36.488C110.411 33.845 109.839 30.802 110.238 27.809C110.283 27.366 110.48 26.953 110.795 26.639C112.825 25.152 115.156 24.129 117.624 23.641C117.801 23.642 117.977 23.664 118.149 23.706L118.163 23.717ZM208.375 17.094C209.77 16.2914 211.072 15.4421 212.463 14.757C214.53 13.6469 216.833 13.0474 219.18 13.0087C221.75 13.0382 222.917 14.4331 222.28 16.9563C221.472 20.196 220.524 23.402 219.634 26.623C218.986 28.971 218.327 31.316 217.692 33.669C216.971 36.325 217.072 36.573 219.414 38.091C218.976 38.528 218.479 38.902 217.938 39.202C215.527 40.1 213.134 41.045 210.654 41.708C208.445 42.299 207.306 41.181 207.78 38.919C208.296 36.439 209.113 34.025 209.795 31.581C210.829 27.861 211.884 24.142 212.862 20.406C212.993 19.904 212.924 19.029 212.613 18.813C212.342 18.692 212.05 18.629 211.754 18.626C211.457 18.623 211.164 18.682 210.891 18.798C209.867 19.164 208.941 19.76 208.182 20.539C207.423 21.318 206.852 22.259 206.513 23.292C205.406 26.738 204.343 30.202 203.413 33.698C203.119 35.091 202.978 36.512 202.994 37.936C202.966 38.647 202.796 39.211 202.15 39.464C200.084 40.27 198.016 41.112 195.906 41.758C195.668 41.867 195.406 41.912 195.145 41.888C194.884 41.864 194.633 41.772 194.419 41.622C194.204 41.471 194.033 41.268 193.921 41.03C193.81 40.793 193.762 40.531 193.783 40.27C193.747 38.753 193.934 37.238 194.34 35.775C195.764 30.826 197.332 25.918 198.85 20.997C199.051 20.493 199.118 19.945 199.045 19.407C198.972 18.869 198.761 18.359 198.433 17.927C197.983 17.35 198.036 16.9284 198.743 16.5038C201.305 15.0082 204.126 14.0091 207.058 13.5589C208.324 13.3451 208.667 13.6535 208.62 14.9198C208.602 15.6389 208.465 16.3519 208.377 17.09L208.375 17.094ZM235.784 20.791C235.581 20.692 235.366 20.619 235.144 20.574C232.599 20.56 230.053 20.524 227.509 20.595C227.08 20.608 226.657 21.101 226.246 21.394C225.835 21.687 225.42 22.026 224.95 22.387C224.82 22.09 224.722 21.98 224.749 21.911C225.561 19.741 226.251 17.499 227.261 15.4188C227.586 14.8111 228.083 14.3125 228.689 13.9851C229.295 13.6576 229.985 13.5159 230.671 13.5775C234.856 13.6225 239.04 13.5775 243.225 13.6101C243.746 13.675 244.258 13.8009 244.75 13.9852C244.628 14.5107 244.438 15.0177 244.183 15.4932C240.795 20.183 237.373 24.85 233.954 29.521C233.127 30.647 232.3 31.77 231.474 32.891C230.992 33.543 231.232 33.877 231.963 33.88C235.939 33.894 239.916 33.926 243.898 33.863C244.821 33.683 245.666 33.22 246.314 32.538C246.962 31.856 247.382 30.989 247.515 30.058C247.543 29.691 247.494 29.322 247.371 28.974C247.249 28.627 247.055 28.309 246.802 28.041C246.55 27.773 246.244 27.561 245.905 27.418C245.566 27.274 245.201 27.203 244.832 27.209C244.388 27.209 243.944 27.282 243.499 27.319C243.405 26.886 243.406 26.438 243.504 26.006C243.601 25.574 243.792 25.169 244.064 24.819C244.335 24.469 244.68 24.183 245.073 23.981C245.467 23.778 245.901 23.665 246.344 23.649C246.726 23.628 247.11 23.635 247.492 23.669C248.067 23.642 248.639 23.763 249.153 24.021C249.667 24.279 250.106 24.666 250.428 25.143C250.749 25.621 250.942 26.173 250.988 26.746C251.034 27.32 250.931 27.896 250.69 28.418C249.912 30.429 248.95 32.364 247.816 34.197C246.632 36.163 245.197 37.975 243.881 39.862C243.642 40.228 243.311 40.525 242.922 40.724C242.532 40.922 242.098 41.015 241.661 40.994C235.314 40.966 228.969 40.968 222.622 40.923C221.882 40.859 221.148 40.735 220.428 40.551C220.666 39.852 220.988 39.185 221.387 38.564C224.603 34.666 227.878 30.814 231.123 26.939C232.442 25.365 233.758 23.777 235.034 22.17C235.326 21.728 235.579 21.261 235.79 20.775L235.784 20.791ZM178.499 13.5899C177.842 13.6535 177.171 13.6178 176.519 13.7046C171.391 14.4168 166.721 17.04 163.444 21.048C160.168 25.057 158.527 30.156 158.85 35.323C158.808 36.807 159.289 38.259 160.208 39.425C161.128 40.591 162.428 41.398 163.881 41.704C166.462 42.301 169.164 42.111 171.637 41.16C174.11 40.208 176.241 38.538 177.757 36.364C177.96 36.013 178.125 35.642 178.25 35.256L178.078 35.008C177.489 35.237 176.883 35.431 176.313 35.696C174.859 36.469 173.214 36.806 171.574 36.67C170.69 36.664 169.838 36.335 169.179 35.744C168.52 35.154 168.1 34.343 167.997 33.464C167.942 31.985 168.034 30.504 168.273 29.043C168.352 28.173 168.893 27.803 169.746 27.576C173.436 26.788 176.894 25.155 179.848 22.806C181.17 21.759 182.112 20.306 182.528 18.672C182.715 18.062 182.751 17.415 182.633 16.7875C182.515 16.16 182.246 15.5706 181.849 15.0702C181.453 14.5698 180.941 14.1733 180.357 13.9149C179.773 13.6565 179.135 13.5439 178.498 13.5868L178.499 13.5899ZM174.966 18.875C174.386 20.506 173.726 22.114 173.055 23.708C172.894 24.041 172.614 24.301 172.27 24.436C171.309 24.763 170.314 24.991 169.326 25.258L169.016 24.914C170.1 22.674 171.185 20.444 172.27 18.218C172.389 18.005 172.543 17.812 172.724 17.649C173.276 17.104 173.889 16.4836 174.712 16.9238C175.573 17.389 175.194 18.23 174.963 18.87L174.966 18.875ZM191.575 38.049C191.316 38.312 191.035 38.553 190.734 38.768C188.328 40.185 185.701 41.189 182.963 41.738C180.514 42.203 179.335 41.164 179.597 38.671C179.749 37.569 180.008 36.484 180.372 35.433C181.857 30.681 183.374 25.94 184.88 21.194C185.148 20.622 185.26 19.991 185.206 19.362C185.152 18.733 184.932 18.13 184.57 17.614C184.432 17.441 184.656 16.7176 184.915 16.5394C185.648 16.0075 186.454 15.5832 187.308 15.2793C189.254 14.6423 191.223 14.0518 193.219 13.5946C194.701 13.2505 195.164 13.7387 194.97 15.2669C194.832 16.338 194.609 17.396 194.302 18.432C192.836 23.407 191.333 28.373 189.845 33.342C189.784 33.542 189.736 33.745 189.68 33.946C189.06 36.271 189.319 36.891 191.582 38.057L191.575 38.049ZM197.136 1.58902C198.628 1.61072 198.857 1.86952 198.523 3.26602C197.517 7.54062 197.241 7.88472 193.169 9.51062C192.336 9.84652 191.47 10.0952 190.586 10.253C189.71 10.4079 189.225 9.92902 189.18 9.01302C189.007 7.49052 189.402 5.95772 190.288 4.70782C191.174 3.45792 192.491 2.57872 193.985 2.23842C195.011 1.94862 196.086 1.80292 197.139 1.58902H197.136Z" fill="white"/>
<path d="M17.3296 21.888L29.9783 40.899C29.4622 40.928 29.1259 40.964 28.7911 40.964C26.2074 40.964 23.6237 40.934 21.0416 40.986C20.7028 41.021 20.3612 40.955 20.0599 40.796C19.7586 40.637 19.5113 40.392 19.3491 40.093C16.102 35.097 12.8038 30.127 9.53203 25.15C9.34143 24.859 9.14143 24.577 8.78803 24.056V40.965H6.40583C4.66063 40.965 2.91693 40.914 1.17493 40.986C0.255827 41.023 -0.00307257 40.758 2.74276e-05 39.825C0.0357274 31.071 0.0217292 22.311 0.0217292 13.5646C0.0217292 10.2509 0.00782724 6.93869 0.0434272 3.62499C0.0434272 3.31499 0.353426 2.73069 0.539426 2.72609C3.21613 2.66869 5.89433 2.68579 8.67333 2.68579V20.321L8.87953 20.409C9.07943 20.163 9.29173 19.925 9.47773 19.667C13.3711 14.2698 17.2588 8.86529 21.1408 3.45299C21.3014 3.19129 21.531 2.97889 21.8044 2.83919C22.0778 2.69949 22.3845 2.63789 22.6907 2.66099C25.5084 2.69359 28.3277 2.67499 31.4291 2.67499L17.3296 21.888Z" fill="white"/>
<path d="M85.992 40.916H77.881V19.773H74.335C74.335 17.486 74.318 15.3383 74.369 13.1902C74.369 13.0352 74.849 12.7639 75.119 12.7453C75.981 12.688 76.841 12.7236 77.65 12.7236C77.847 11.0016 77.901 9.43471 78.222 7.91891C78.522 5.85901 79.516 3.96311 81.04 2.54481C82.564 1.12641 84.526 0.270412 86.602 0.118212C88.368 -0.00928846 90.141 -0.0263902 91.909 0.0671099C92.445 0.0671099 92.745 0.273213 92.74 0.874613C92.72 2.72211 92.72 4.56951 92.74 6.41701C92.74 7.00131 92.521 7.22451 91.929 7.19201C91.132 7.11731 90.33 7.10231 89.53 7.14701C88.626 7.12901 87.75 7.46761 87.093 8.08971C86.436 8.71181 86.051 9.56741 86.019 10.4716C85.969 11.2171 85.965 11.9651 86.006 12.7112H91.319V19.745H85.99L85.992 40.916Z" fill="white"/>
<path d="M110.147 41.823C102.779 42.339 98.3201 38.669 97.7681 32.39C97.4411 28.655 97.6131 24.871 97.5571 21.113V19.752C96.6741 19.752 95.9141 19.73 95.1571 19.752C94.5511 19.777 94.2691 19.58 94.2781 18.92C94.3041 17.142 94.3091 15.3642 94.2781 13.5803C94.2641 12.8735 94.566 12.6674 95.208 12.6984C95.933 12.7325 96.6601 12.6984 97.5021 12.6984V5.14258H105.533V12.6829H111.632C111.632 14.9597 111.651 17.108 111.595 19.253C111.595 19.425 111.051 19.699 110.753 19.707C109.086 19.752 107.419 19.729 105.831 19.729C105.71 19.884 105.632 19.935 105.632 19.989C105.649 23.889 105.49 27.798 105.746 31.682C106.056 35.187 107.43 38.515 109.684 41.218C109.817 41.378 109.936 41.544 110.147 41.823Z" fill="white"/>
<path d="M32.1528 12.873C32.3883 12.856 32.5914 12.8281 32.7944 12.8265H40.1193V17.6L40.3316 17.735C41.0756 16.4148 42.1112 15.2818 43.3593 14.4223C44.6075 13.5628 46.035 12.9996 47.534 12.7754V15.1003C47.534 16.6688 47.512 18.239 47.534 19.807C47.534 20.506 47.275 20.773 46.551 20.965C45.077 21.203 43.7074 21.876 42.618 22.898C41.5287 23.92 40.7692 25.244 40.4371 26.7C40.2977 27.595 40.2509 28.501 40.2975 29.406C40.2836 32.927 40.2712 36.45 40.3084 39.97C40.3084 40.737 40.1162 41.004 39.3149 40.988C37.19 40.937 35.0603 40.957 32.9416 40.979C32.3542 40.979 32.0551 40.869 32.0566 40.181C32.0794 31.186 32.0887 22.19 32.0846 13.1923C32.0977 13.084 32.1206 12.9772 32.1528 12.873Z" fill="white"/>
<path d="M63.4301 41.178L63.2111 39.834C62.8361 40.019 62.5121 40.178 62.1781 40.34C60.6861 41.153 59.0181 41.589 57.3191 41.61C55.6201 41.631 53.9421 41.236 52.4301 40.461C50.7811 39.588 49.4551 38.209 48.6471 36.528C47.8381 34.847 47.5891 32.951 47.9361 31.118C48.2371 29.282 49.0991 27.586 50.4031 26.26C51.7081 24.934 53.3901 24.044 55.2201 23.712C57.5551 23.278 59.9521 23.292 62.2821 23.754C62.5471 23.796 62.8131 23.813 63.0831 23.842C63.1461 23.015 62.9191 22.192 62.4401 21.515C61.9621 20.837 61.2621 20.348 60.4621 20.13C58.1961 19.527 55.8181 19.474 53.5281 19.975C52.6441 20.13 51.7651 20.304 50.7551 20.492C50.7551 18.044 50.7421 15.6868 50.7751 13.3201C50.8041 13.1999 50.8621 13.0889 50.9451 12.9971C51.0281 12.9053 51.1331 12.8357 51.2491 12.7947C56.0711 12.0197 60.8771 11.5888 65.5631 13.4937C67.1851 14.1366 68.5751 15.2561 69.5481 16.7045C70.5221 18.153 71.0341 19.862 71.0171 21.607C71.2911 26.085 71.1891 30.597 71.2411 35.092C71.2601 36.797 71.2211 38.501 71.2571 40.216C71.2731 40.904 71.1141 41.215 70.3391 41.2C68.0561 41.153 65.7611 41.178 63.4301 41.178ZM63.1821 31.86C63.1601 31.477 63.1541 30.812 63.0671 30.155C63.0361 29.926 62.8361 29.569 62.6611 29.535C60.7811 28.949 58.7531 29.048 56.9391 29.816C56.4841 30.06 56.0991 30.415 55.8181 30.847C55.5371 31.28 55.3701 31.777 55.3331 32.291C55.2951 32.806 55.3881 33.321 55.6031 33.79C55.8181 34.259 56.1481 34.666 56.5621 34.974C57.0541 35.341 57.6181 35.599 58.2181 35.729C58.8171 35.86 59.4381 35.86 60.0371 35.73C63.5091 35.039 62.9881 35.625 63.1821 31.865V31.86Z" fill="white"/>
</svg>
