<svg width="142" height="85" viewBox="0 0 142 85" fill="none" xmlns="http://www.w3.org/2000/svg">
<path d="M0.00598145 10.5339H6.93903C6.96301 10.6531 6.97938 10.7738 6.98804 10.895C6.97704 15.787 7.00503 20.6779 6.92603 25.5699C6.83253 27.0965 6.66231 28.6175 6.41602 30.127C6.40102 30.262 6.38799 30.3979 6.36499 30.6379C7.00499 30.0849 7.56499 29.575 8.14899 29.099C11.4849 26.2397 15.7617 24.7173 20.154 24.8259C22.9783 24.728 25.7348 25.7043 27.868 27.558C29.5413 29.2412 30.6919 31.3725 31.181 33.6949C31.9648 37.0851 32.2877 40.5655 32.141 44.042C32.1552 46.8334 31.7971 49.6143 31.076 52.311C30.4953 54.67 29.2025 56.793 27.3731 58.3916C25.5437 59.9902 23.2666 60.9868 20.851 61.246C17.7325 61.6815 14.5711 61.7151 11.444 61.3459C7.95394 61.0689 4.50091 60.4387 1.138 59.465C0.762001 59.352 0.385033 59.2319 0.0090332 59.1169L0.00598145 10.5339ZM6.99103 45.108V54.184C6.99103 54.498 6.99102 54.722 7.40302 54.814C10.5655 55.5439 13.8089 55.8638 17.053 55.766C18.3963 55.7542 19.7187 55.4321 20.917 54.825C21.8531 54.2766 22.6551 53.5262 23.2644 52.6285C23.8737 51.7308 24.275 50.7085 24.439 49.636C25.0228 46.8472 25.2316 43.9931 25.06 41.149C25.0544 39.165 24.8086 37.189 24.328 35.264C24.1244 34.2335 23.6301 33.2827 22.9036 32.5239C22.1771 31.7652 21.2488 31.2301 20.228 30.9819C17.795 30.3223 15.208 30.5347 12.915 31.582C10.9562 32.5851 9.1121 33.7979 7.41504 35.199C7.27163 35.2945 7.15589 35.4262 7.07953 35.5807C7.00316 35.7352 6.96881 35.907 6.97998 36.079C6.99698 39.086 6.98901 42.096 6.98901 45.106L6.99103 45.108Z" fill="white"/>
<path d="M39.454 84.9561C38.222 84.7211 36.972 84.5562 35.763 84.2332C33.1541 83.5296 30.735 82.2528 28.682 80.4961C28.6017 80.4436 28.529 80.3804 28.466 80.3081C28.348 80.1201 28.248 79.9321 28.141 79.7441C28.3532 79.7489 28.564 79.779 28.769 79.834C29.078 79.956 29.358 80.147 29.659 80.291C32.9033 81.9615 36.4711 82.909 40.1168 83.0684C43.7624 83.2277 47.3993 82.5951 50.777 81.2141C50.867 81.1791 50.965 81.108 51.05 81.114C51.266 81.131 51.479 81.1839 51.693 81.2209C51.608 81.4319 51.586 81.729 51.43 81.842C49.9812 82.898 48.3468 83.6721 46.612 84.124C45.267 84.474 43.888 84.688 42.524 84.959L39.454 84.9561Z" fill="white"/>
<path d="M0.00701904 75.874C1.06802 73.407 3.13201 73.8339 5.23901 74.1149C5.23958 73.5692 5.2082 73.0239 5.14502 72.4819C5.11913 72.329 5.06308 72.1829 4.98016 72.0519C4.89724 71.9209 4.78913 71.8077 4.66205 71.7189C4.53492 71.6301 4.39135 71.5674 4.23975 71.5346C4.08814 71.5018 3.93148 71.4996 3.77899 71.528C2.72699 71.575 1.67899 71.7329 0.61499 71.8459C0.37399 70.9729 0.468 70.768 1.388 70.509C2.57676 70.1383 3.84081 70.0789 5.05902 70.3369C5.50626 70.3981 5.91764 70.6149 6.22101 70.9492C6.52437 71.2834 6.70033 71.7139 6.71802 72.165C6.79302 74.323 6.75603 76.492 6.75903 78.643C6.75903 78.675 6.72304 78.7089 6.68604 78.7709H5.45599L5.26801 78.0449C2.63401 79.7769 0.506 78.945 0 77.174L0.00701904 75.874ZM3.64203 75.05V75.0119C3.31209 75.0348 2.98404 75.0796 2.66003 75.1459C2.4862 75.1816 2.32157 75.2527 2.17651 75.3549C2.03146 75.4571 1.90908 75.5882 1.81702 75.7399C1.72479 75.8916 1.66485 76.0607 1.64093 76.2365C1.61701 76.4124 1.62966 76.5911 1.67804 76.7619C1.70032 76.9187 1.75478 77.0693 1.83807 77.204C1.92137 77.3388 2.03171 77.4548 2.16205 77.5449C2.29196 77.6344 2.43889 77.6961 2.59375 77.7263C2.74861 77.7564 2.90803 77.7542 3.06201 77.7199C3.72062 77.5656 4.36117 77.3424 4.97302 77.0539C5.04086 77.0068 5.0977 76.9458 5.13965 76.8747C5.1816 76.8036 5.20764 76.7242 5.216 76.642C5.372 75.282 5.17704 75.067 3.81604 75.05H3.64203Z" fill="white"/>
<path d="M141.733 70.686C141.261 71.839 140.773 72.986 140.318 74.144C139.518 76.187 138.736 78.2441 137.932 80.2831C137.285 81.9311 136.332 82.541 134.863 82.34C134.285 82.259 133.952 82.052 134.077 81.413C134.095 81.2774 134.105 81.1409 134.107 81.0041C134.168 80.9872 134.231 80.9783 134.295 80.978C134.606 81.0623 134.932 81.0725 135.247 81.0075C135.562 80.9425 135.857 80.8041 136.109 80.6037C136.361 80.4033 136.562 80.1467 136.697 79.8542C136.831 79.5617 136.894 79.2417 136.882 78.9201C136.87 78.706 136.812 78.497 136.713 78.3071C135.756 75.9024 134.797 73.4988 133.835 71.0961C133.756 70.9081 133.696 70.696 133.605 70.435C134.088 70.4127 134.572 70.4197 135.054 70.456C135.153 70.4894 135.244 70.5446 135.319 70.6174C135.395 70.6902 135.453 70.779 135.49 70.8771C136.167 72.7381 136.818 74.606 137.477 76.477C137.541 76.665 137.614 76.8331 137.742 77.1601C138.004 76.4081 138.218 75.796 138.427 75.183C138.895 73.811 139.377 72.442 139.819 71.061C139.964 70.607 140.152 70.361 140.671 70.433C141.023 70.4635 141.377 70.4714 141.73 70.457L141.733 70.686Z" fill="white"/>
<path d="M110.11 60.2839V10.573H117.176V11.2219C117.176 18.3359 117.2 25.451 117.161 32.564C117.15 34.699 116.961 36.833 116.851 39.064H118.565C119.359 39.1876 120.17 39.1537 120.951 38.964C121.611 38.652 122.021 37.803 122.528 37.179C125.35 33.679 128.197 30.1859 130.994 26.6639C131.158 26.4287 131.38 26.2406 131.639 26.1187C131.899 25.9967 132.185 25.9451 132.471 25.969C134.635 26.012 136.798 25.986 138.966 25.986H139.656C138.768 27.086 137.963 28.0859 137.148 29.0859C134.495 32.3499 131.865 35.6329 129.177 38.8689C128.394 39.8099 127.45 40.6189 126.611 41.4559C129.655 44.9953 132.493 48.7064 135.111 52.5709C136.911 54.9319 138.622 57.355 140.379 59.75C140.492 59.904 140.593 60.066 140.744 60.292C140.486 60.305 140.3 60.324 140.116 60.324C137.873 60.324 135.629 60.3109 133.386 60.3369C133.177 60.3568 132.967 60.3169 132.781 60.222C132.594 60.1271 132.438 59.9811 132.331 59.8009C128.722 54.6069 125.086 49.4289 121.477 44.2329C121.372 44.0499 121.217 43.9009 121.03 43.8036C120.843 43.7063 120.632 43.6647 120.422 43.684C119.209 43.716 117.993 43.6949 116.757 43.6949C117.352 49.2529 116.928 54.7519 117.101 60.2849L110.11 60.2839Z" fill="white"/>
<path d="M71.837 60.2831V26.0281H77.729L78.158 30.928C78.416 30.757 78.602 30.636 78.786 30.51C82.1609 28.0171 85.9986 26.2215 90.075 25.228C92.397 24.6737 94.8085 24.6057 97.158 25.0281C98.9382 25.2922 100.573 26.1629 101.785 27.493C102.997 28.8232 103.713 30.531 103.811 32.328C103.887 33.0699 103.925 33.8152 103.926 34.561C103.933 42.8944 103.933 51.2277 103.926 59.561V60.295H96.94V35.886C96.9414 35.1993 96.8784 34.5139 96.752 33.839C96.7151 33.3648 96.5833 32.9029 96.3645 32.4807C96.1456 32.0585 95.8442 31.6845 95.478 31.381C95.1122 31.0767 94.6889 30.8491 94.2333 30.7117C93.7777 30.5742 93.2991 30.5298 92.826 30.581C90.2199 30.5416 87.6441 31.1443 85.326 32.336C83.241 33.346 81.221 34.4861 79.161 35.5441C78.798 35.7321 78.8 35.997 78.8 36.319V60.286L71.837 60.2831Z" fill="white"/>
<path d="M38.2961 10.5659H45.291V51.033C45.2831 51.5043 45.3196 51.9754 45.4001 52.4399C45.5263 53.2655 45.9399 54.0201 46.5679 54.5707C47.1959 55.1213 47.998 55.4327 48.8331 55.45C50.0461 55.544 51.2791 55.5289 52.4881 55.5199C52.9061 55.5199 53.0791 55.636 53.1391 56.054C53.3481 57.51 53.5871 58.961 53.8391 60.554C52.9771 60.723 52.1291 60.9389 51.2671 61.0469C49.1305 61.4066 46.9514 61.4356 44.8061 61.1329C43.0747 60.8848 41.4845 60.0394 40.3105 58.7429C39.1366 57.4464 38.4526 55.7804 38.377 54.033C38.324 53.369 38.2941 52.699 38.2941 52.033V11.345L38.2961 10.5659Z" fill="white"/>
<path d="M57.546 26.0061H64.346V60.2871H57.546V26.0061Z" fill="white"/>
<path d="M31.5741 71.553C31.7518 71.1801 32.0322 70.8656 32.3824 70.6463C32.7325 70.427 33.1379 70.3121 33.5511 70.315C33.9641 70.3181 34.3678 70.4387 34.7147 70.6629C35.0617 70.8871 35.3376 71.2055 35.5101 71.5809C36.4281 70.4309 37.2431 70.1 38.3211 70.441C38.6913 70.521 39.0251 70.7199 39.2714 71.0076C39.5177 71.2953 39.663 71.6559 39.6851 72.034C39.7601 73.464 39.7531 74.898 39.7741 76.334V78.2789C39.7741 78.6399 39.6251 78.8171 39.2421 78.8121C37.3251 78.7841 37.6821 79.0379 37.6581 77.3499C37.6391 76.0329 37.6581 74.716 37.6581 73.399C37.6581 72.665 37.4101 72.3509 36.8581 72.2989C36.7201 72.2828 36.5802 72.2966 36.448 72.3394C36.3158 72.3822 36.1944 72.453 36.0921 72.5469C35.9897 72.6409 35.9089 72.7558 35.855 72.8838C35.8012 73.0119 35.7756 73.15 35.7801 73.2889C35.7071 74.8369 35.7051 76.3891 35.6801 77.9371C35.6691 78.8031 35.6801 78.806 34.8111 78.803C33.4661 78.803 33.6111 78.9349 33.6051 77.6119V73.772C33.6051 72.726 33.3251 72.278 32.6851 72.272C32.0451 72.266 31.6771 72.755 31.6601 73.772C31.6371 75.225 31.6281 76.6809 31.6601 78.1329C31.6711 78.6689 31.4721 78.8079 30.9731 78.7969C29.3141 78.7589 29.5561 78.985 29.5471 77.397C29.5361 75.314 29.5601 73.231 29.5341 71.149C29.5341 70.584 29.7221 70.3969 30.2551 70.4549C30.3333 70.46 30.4118 70.46 30.4901 70.4549C31.5211 70.4629 31.5211 70.463 31.5681 71.543L31.5741 71.553Z" fill="white"/>
<path d="M64.482 15.685C64.482 16.411 64.514 17.137 64.482 17.862C64.5074 18.1245 64.4723 18.3894 64.3794 18.6363C64.2865 18.8831 64.1383 19.1054 63.946 19.286C63.7538 19.4668 63.5227 19.6009 63.2704 19.6782C63.0182 19.7556 62.7515 19.7739 62.491 19.732H59.373C58.193 19.732 57.51 19.192 57.458 18.039C57.386 16.474 57.388 14.901 57.458 13.339C57.4521 13.1047 57.4965 12.8718 57.5883 12.6561C57.68 12.4405 57.817 12.2471 57.99 12.089C58.1631 11.931 58.3682 11.812 58.5912 11.74C58.8143 11.6681 59.0502 11.6449 59.283 11.672C60.4017 11.65 61.521 11.65 62.641 11.672C62.8832 11.65 63.1272 11.6804 63.3565 11.7611C63.5859 11.8419 63.7951 11.9712 63.97 12.14C64.1451 12.3089 64.2817 12.5135 64.3706 12.7399C64.4594 12.9663 64.4985 13.2091 64.485 13.4519C64.515 14.1929 64.482 14.94 64.482 15.685V15.685Z" fill="white"/>
<path d="M93.759 78.775H92.1591V70.525C93.1001 70.259 93.3821 70.371 93.7001 71.148C95.4061 70.329 97.1201 69.3851 98.8631 71.2481L99.4951 70.8931C100.292 70.4214 101.203 70.179 102.129 70.1929C102.406 70.1599 102.687 70.1857 102.954 70.2686C103.22 70.3516 103.466 70.4899 103.676 70.6744C103.886 70.8589 104.054 71.0855 104.17 71.3394C104.286 71.5934 104.347 71.8689 104.349 72.148C104.449 74.338 104.375 76.537 104.375 78.765H102.755V73.2491C102.755 71.7681 102.155 71.2959 100.71 71.5989C100.652 71.6119 100.593 71.6201 100.537 71.6331C99.169 71.9531 99.073 72.0712 99.073 73.4542V78.7462H97.4221V73.0902C97.4221 71.8282 96.822 71.344 95.576 71.545C95.459 71.564 95.3451 71.592 95.2301 71.619C93.8851 71.905 93.7551 72.0631 93.7551 73.4271V78.7701L93.759 78.775Z" fill="white"/>
<path d="M108.438 78.0792V82.1031H106.805V70.4632H108.138L108.309 71.0541C109.015 70.7128 109.751 70.44 110.509 70.2391C110.915 70.1475 111.336 70.1372 111.746 70.2091C112.156 70.281 112.548 70.4335 112.899 70.6578C113.25 70.8821 113.553 71.1738 113.791 71.516C114.028 71.8581 114.196 72.244 114.283 72.6512C114.657 73.8793 114.646 75.1922 114.253 76.4142C114.11 76.9554 113.838 77.4538 113.459 77.8668C113.081 78.2798 112.609 78.5951 112.082 78.7855C111.556 78.9759 110.991 79.036 110.436 78.9603C109.882 78.8847 109.353 78.6756 108.897 78.3512C108.769 78.2812 108.639 78.2042 108.44 78.0802L108.438 78.0792ZM108.438 74.5502C108.463 75.0793 108.459 75.6094 108.425 76.1381C108.377 76.3786 108.422 76.6286 108.553 76.8365C108.683 77.0444 108.888 77.1946 109.125 77.2562C109.313 77.3282 109.484 77.4143 109.671 77.4723C110.006 77.6249 110.374 77.691 110.741 77.6649C111.108 77.6389 111.463 77.5215 111.773 77.3231C112.083 77.1248 112.339 76.8518 112.516 76.5294C112.694 76.207 112.788 75.8453 112.79 75.4772C112.847 74.8929 112.847 74.3043 112.79 73.7201C112.804 73.3562 112.727 72.9946 112.565 72.6686C112.402 72.3426 112.161 72.0626 111.862 71.8546C111.563 71.6466 111.216 71.5173 110.854 71.4784C110.492 71.4395 110.126 71.4924 109.79 71.6322C109.473 71.7333 109.163 71.8545 108.862 71.9952C108.714 72.0438 108.587 72.1439 108.506 72.2775C108.425 72.411 108.395 72.5691 108.42 72.7233C108.454 73.3333 108.429 73.9432 108.429 74.5502H108.438Z" fill="white"/>
<path d="M25.659 73.5151C25.781 72.1831 25.125 71.5409 24.154 71.9909C23.8812 72.1311 23.6642 72.3601 23.539 72.6401C23.522 72.71 23.4907 72.7757 23.4472 72.833C23.4037 72.8903 23.3488 72.938 23.286 72.9731C23.2231 73.0085 23.1537 73.0306 23.082 73.038C23.0102 73.0454 22.9377 73.0379 22.869 73.0161C22.656 72.9761 22.442 72.9541 22.226 72.9311C21.434 72.8521 21.342 72.7201 21.662 71.9751C21.926 71.4203 22.3513 70.9582 22.8823 70.6491C23.4133 70.3401 24.0252 70.1984 24.638 70.2429C25.1463 70.2276 25.654 70.2912 26.143 70.4311C26.6038 70.5156 27.0209 70.7576 27.3226 71.1159C27.6244 71.4743 27.7921 71.9265 27.797 72.395C27.846 73.495 27.797 74.595 27.874 75.695C27.9242 76.2104 28.0743 76.7109 28.316 77.1689C28.504 77.5239 28.504 77.733 28.184 77.955C28.0582 78.0483 27.9377 78.1485 27.823 78.2551C26.929 79.0301 26.923 79.0281 26.173 78.0471C26.128 77.9871 26.073 77.9319 26.128 77.9919C25.4412 78.34 24.7222 78.6205 23.981 78.8291C23.4536 78.9824 22.8873 78.9245 22.4019 78.6674C21.9166 78.4104 21.5504 77.9745 21.381 77.4521C21.1461 76.8597 21.138 76.2014 21.3581 75.6035C21.5782 75.0055 22.0111 74.5096 22.574 74.2109C23.3245 73.9357 24.1002 73.7349 24.89 73.611C25.135 73.564 25.39 73.5509 25.661 73.5109L25.659 73.5151ZM25.764 74.8449L25.557 74.666C25.0205 74.7968 24.4957 74.9717 23.988 75.1889C23.747 75.3446 23.5705 75.5823 23.4913 75.8581C23.412 76.1339 23.4354 76.429 23.557 76.6889C23.6389 76.8434 23.7525 76.9789 23.8904 77.0866C24.0282 77.1943 24.1872 77.2718 24.357 77.3139C24.6155 77.3369 24.8734 77.264 25.0816 77.1091C25.2898 76.9542 25.4337 76.7283 25.486 76.4741C25.6176 75.937 25.7112 75.3913 25.766 74.841L25.764 74.8449Z" fill="white"/>
<path d="M45.799 77.8301C45.493 78.1914 45.107 78.4764 44.6717 78.6626C44.2364 78.8489 43.7637 78.9313 43.291 78.9031C42.8637 78.9348 42.4375 78.8295 42.0741 78.6025C41.7107 78.3756 41.4291 78.0389 41.27 77.6411C41.0605 77.1711 40.9886 76.6513 41.0626 76.1421C41.1366 75.6329 41.3534 75.1551 41.688 74.7642C42.4314 74.0462 43.4226 73.6418 44.456 73.635C44.783 73.59 45.115 73.5581 45.464 73.5181C45.509 72.9821 45.622 72.455 45.144 72.083C44.9653 71.939 44.7451 71.856 44.5157 71.8464C44.2864 71.8369 44.0601 71.9013 43.87 72.03C43.6384 72.1693 43.4581 72.3799 43.356 72.6301C43.34 72.7065 43.3075 72.7783 43.2609 72.8408C43.2143 72.9033 43.1546 72.9548 43.086 72.992C43.0173 73.029 42.9414 73.0508 42.8636 73.0557C42.7857 73.0605 42.7077 73.0483 42.635 73.02C42.422 72.98 42.208 72.959 41.992 72.939C41.268 72.869 41.181 72.7391 41.461 72.0391C41.6787 71.5065 42.0539 71.0531 42.5365 70.7398C43.0191 70.4264 43.5859 70.2683 44.161 70.2861C44.8427 70.2496 45.5257 70.327 46.182 70.5151C46.5986 70.6202 46.9674 70.8632 47.228 71.2048C47.4886 71.5465 47.6257 71.9664 47.617 72.396C47.655 73.456 47.66 74.515 47.651 75.574C47.5993 76.1661 47.7757 76.7555 48.144 77.2219C48.1993 77.2646 48.2426 77.321 48.2698 77.3853C48.2969 77.4496 48.307 77.5198 48.299 77.5891C48.2913 77.6584 48.2657 77.7242 48.2247 77.7805C48.1836 77.8368 48.1286 77.8817 48.065 77.9102C47.9237 78.0165 47.7882 78.1301 47.659 78.251C46.767 79.032 46.759 79.032 46.035 78.117L45.799 77.8301ZM45.56 74.8521L45.394 74.686C44.8837 74.7918 44.3822 74.9367 43.894 75.1192C43.6441 75.2636 43.4517 75.4896 43.349 75.7593C43.2462 76.029 43.2395 76.326 43.33 76.6001C43.351 76.7996 43.4437 76.9846 43.5908 77.1209C43.7379 77.2571 43.9295 77.3354 44.13 77.3411C44.4002 77.3579 44.6676 77.2784 44.8847 77.1165C45.1017 76.9546 45.2542 76.7209 45.315 76.457C45.4361 75.9305 45.518 75.3956 45.56 74.8569V74.8521Z" fill="white"/>
<path d="M62.769 74.8301C62.7857 75.4353 62.679 76.0377 62.4555 76.6004C62.2321 77.1631 61.8964 77.6742 61.469 78.1031C61.1424 78.4097 60.7543 78.6436 60.3306 78.7891C59.9069 78.9346 59.4571 78.9884 59.011 78.9471C58.5647 78.906 58.1323 78.7704 57.7423 78.5496C57.3523 78.3288 57.0138 78.0276 56.749 77.6661C56.202 76.7784 55.9026 75.7607 55.8819 74.7183C55.8611 73.6759 56.1198 72.6468 56.631 71.7381C56.9275 71.2899 57.3319 70.9234 57.807 70.6722C58.282 70.4209 58.8126 70.2929 59.35 70.3001C59.8874 70.3074 60.4143 70.4494 60.8826 70.7132C61.3508 70.977 61.7453 71.3542 62.03 71.8101C62.5558 72.727 62.811 73.7741 62.766 74.8301H62.769ZM60.557 74.7491C60.484 74.0811 60.45 73.4741 60.341 72.8811C60.221 72.2271 59.865 71.9141 59.333 71.9231C59.0834 71.924 58.8426 72.0157 58.6559 72.1814C58.4692 72.3471 58.3494 72.5753 58.319 72.823C58.0233 74.0263 58.0401 75.2851 58.368 76.48C58.3963 76.7075 58.5056 76.9173 58.6758 77.0708C58.846 77.2244 59.0658 77.3115 59.295 77.3162C59.5343 77.3267 59.7691 77.2478 59.9538 77.0953C60.1385 76.9427 60.2601 76.7271 60.295 76.49C60.4115 75.9171 60.4993 75.3388 60.558 74.7571L60.557 74.7491Z" fill="white"/>
<path d="M65.917 71.7531C66.0748 71.2669 66.4045 70.8549 66.8443 70.5944C67.2841 70.3339 67.8038 70.2428 68.306 70.3381C68.7645 70.3801 69.1917 70.5887 69.5066 70.9248C69.8214 71.2608 70.0019 71.7008 70.014 72.1611C70.1275 74.2403 70.1369 76.3239 70.042 78.404C69.993 79.222 69.067 78.646 68.561 78.779C68.234 78.87 68.01 78.7161 68.014 78.3051C68.027 76.8321 68.023 75.357 68.014 73.884C68.0457 73.5915 68.0116 73.2956 67.914 73.018C67.758 72.718 67.466 72.3181 67.214 72.2961C67.0297 72.3019 66.8497 72.3523 66.6891 72.4428C66.5285 72.5334 66.3923 72.6615 66.292 72.8161C66.0852 73.3413 65.9787 73.9006 65.978 74.465C65.935 75.701 65.95 76.9412 65.978 78.1792C65.978 78.6382 65.833 78.809 65.367 78.8C63.589 78.76 63.916 79.007 63.901 77.342C63.882 75.259 63.91 73.1762 63.886 71.0942C63.886 70.5942 64.059 70.454 64.535 70.458C65.747 70.469 65.747 70.4512 65.923 71.7522L65.917 71.7531Z" fill="white"/>
<path d="M86.138 70.2061C86.6171 70.1681 87.0989 70.2261 87.5552 70.3765C88.0116 70.5269 88.4334 70.7669 88.796 71.0823C89.1586 71.3977 89.4546 71.782 89.6668 72.2132C89.8791 72.6443 90.0032 73.1134 90.032 73.593C90.2016 74.3142 90.2081 75.0641 90.0512 75.7881C89.8943 76.5121 89.5779 77.1919 89.125 77.7781C88.5898 78.3804 87.8831 78.8046 87.0999 78.9939C86.3167 79.1832 85.4943 79.1286 84.743 78.8372C84.052 78.6475 83.4378 78.2455 82.9872 77.6883C82.5365 77.131 82.272 76.4465 82.231 75.731C82.1229 74.9544 82.128 74.1663 82.246 73.3911C82.3513 72.4579 82.817 71.6025 83.544 71.0078C84.2709 70.4132 85.2014 70.1262 86.137 70.208L86.138 70.2061ZM83.779 74.563C83.829 75.089 83.9102 75.6116 84.022 76.128C84.1158 76.5867 84.3724 76.9961 84.7444 77.2803C85.1165 77.5645 85.5788 77.7044 86.046 77.6741C86.5299 77.7338 87.0187 77.6135 87.4195 77.336C87.8202 77.0584 88.1048 76.6429 88.219 76.169C88.5209 75.1665 88.5209 74.0974 88.219 73.095C88.0834 72.6461 87.8078 72.2522 87.4325 71.971C87.0573 71.6897 86.602 71.5358 86.133 71.5315C85.6641 71.5273 85.206 71.6731 84.8257 71.9475C84.4455 72.222 84.1628 72.6108 84.019 73.0572C83.9084 73.5519 83.8272 74.0528 83.776 74.5572L83.779 74.563Z" fill="white"/>
<path d="M116.593 71.847C116.461 70.786 116.493 70.7181 117.593 70.4471C118.715 70.1358 119.896 70.0964 121.036 70.3321C121.463 70.3835 121.859 70.5795 122.159 70.8875C122.459 71.1956 122.644 71.597 122.684 72.025C122.77 74.254 122.712 76.4892 122.712 78.7562H121.453L121.301 78.1732C120.495 78.4969 119.663 78.753 118.814 78.9391C118.495 79.01 118.164 79.0128 117.844 78.9471C117.524 78.8814 117.221 78.7486 116.956 78.5577C116.69 78.3668 116.468 78.122 116.304 77.8392C116.14 77.5564 116.037 77.2422 116.003 76.9171C115.942 76.5811 115.951 76.2362 116.03 75.9039C116.108 75.5716 116.254 75.259 116.459 74.9857C116.663 74.7123 116.922 74.4842 117.219 74.3153C117.515 74.1464 117.844 74.0403 118.183 74.004C119.193 73.9321 120.207 73.9245 121.218 73.981C121.22 73.4456 121.182 72.911 121.105 72.3812C121.037 72.0972 120.862 71.8502 120.617 71.6912C120.372 71.5323 120.075 71.4737 119.788 71.5272C118.738 71.5872 117.688 71.734 116.595 71.848L116.593 71.847ZM119.652 75.0472L119.639 74.982C119.215 75.0352 118.795 75.1209 118.384 75.2381C118.116 75.3477 117.895 75.5478 117.759 75.8036C117.623 76.0593 117.582 76.3546 117.641 76.638C117.651 76.9067 117.758 77.1628 117.942 77.3592C118.125 77.5556 118.374 77.6791 118.641 77.7071C119.511 77.7977 120.382 77.5391 121.061 76.9881C121.13 76.9225 121.175 76.8354 121.189 76.7411C121.471 75.4241 121.189 75.0672 119.825 75.0482L119.652 75.0472Z" fill="white"/>
<path d="M9.23999 70.4838C10.455 70.3408 10.455 70.3408 10.775 71.2358C11.26 70.9948 11.734 70.7239 12.235 70.5209C13.0582 70.1824 13.9644 70.1004 14.835 70.2858C15.2343 70.3299 15.6059 70.5116 15.8857 70.8C16.1655 71.0884 16.336 71.4654 16.368 71.8659C16.453 74.1539 16.396 76.4479 16.396 78.7719H14.876C14.861 78.5629 14.836 78.3558 14.835 78.1508V73.5507C14.8354 73.257 14.8148 72.9636 14.773 72.6728C14.7557 72.3527 14.6124 72.0526 14.3744 71.8378C14.1364 71.6231 13.8231 71.5113 13.503 71.5268C12.6518 71.4906 11.812 71.7321 11.11 72.2148C11.0309 72.2899 10.9681 72.3804 10.9253 72.4807C10.8825 72.5809 10.8606 72.6888 10.861 72.7978C10.842 74.5658 10.85 76.3349 10.85 78.0979V78.7639H9.24097L9.23999 70.4838Z" fill="white"/>
<path d="M126.826 78.7769H125.226V70.4649H126.543L126.754 71.2979C127.796 70.5118 129.084 70.122 130.387 70.1981C130.888 70.1838 131.375 70.3627 131.747 70.6978C132.12 71.033 132.349 71.4986 132.387 71.9981C132.46 74.2321 132.41 76.471 132.41 78.753H130.847C130.836 78.529 130.817 78.3199 130.817 78.1099V73.275C130.817 71.845 130.162 71.311 128.759 71.568C128.624 71.592 128.488 71.6131 128.359 71.6471C126.999 71.9871 126.835 72.196 126.835 73.587L126.826 78.7769Z" fill="white"/>
<path d="M52.3391 72.1489C51.4591 72.1489 50.7391 72.1359 50.0171 72.1489C49.6171 72.1579 49.4701 72.0099 49.4681 71.5979C49.4681 70.4429 49.4441 70.4429 50.5971 70.4429C51.8761 70.4429 53.1541 70.4569 54.4331 70.4429C54.8901 70.4429 55.0481 70.5919 55.0591 71.0559C55.0808 71.5855 54.9155 72.1059 54.5921 72.5259C53.7701 73.6549 52.9921 74.7979 52.1841 75.9519C52.9371 76.1079 53.6531 76.2079 54.3381 76.4089C54.5231 76.4848 54.6909 76.5972 54.8316 76.7393C54.9723 76.8813 55.083 77.0501 55.1571 77.2358C55.2311 77.4216 55.2671 77.6206 55.2628 77.8206C55.2585 78.0205 55.214 78.2175 55.1321 78.3999C55.0755 78.4505 55.0072 78.4862 54.9333 78.5037C54.8594 78.5211 54.7823 78.5199 54.7091 78.5C53.9274 78.1209 53.0699 77.9238 52.2011 77.9238C51.3323 77.9238 50.4748 78.1209 49.6931 78.5C49.3321 78.668 49.2251 78.5 49.2111 78.187C49.0851 77.309 49.3088 76.4166 49.8341 75.7019C50.7031 74.6239 51.4431 73.4359 52.3341 72.1519L52.3391 72.1489Z" fill="white"/>
<path d="M80.893 71.8307C79.493 71.6517 78.043 71.1309 76.993 72.5119C76.6489 73.1534 76.4688 73.8699 76.4688 74.5978C76.4688 75.3258 76.6489 76.0423 76.993 76.6838C78.093 78.0958 79.563 77.5649 80.976 77.3229C80.9993 77.369 81.0158 77.4182 81.025 77.4689C81.07 78.5689 81.04 78.6499 79.934 78.8229C79.2773 78.938 78.6076 78.9587 77.945 78.8847C77.2121 78.8218 76.521 78.5167 75.981 78.0173C75.441 77.5178 75.0828 76.8527 74.963 76.1269C74.7103 75.0727 74.7296 73.9714 75.019 72.9267C75.2669 72.0442 75.8312 71.2841 76.6041 70.7914C77.377 70.2987 78.3044 70.108 79.209 70.2558C79.4618 70.2791 79.7132 70.3162 79.962 70.3669C80.985 70.5809 81.074 70.7218 80.893 71.8288V71.8307Z" fill="white"/>
<path d="M49.156 80.091C49.645 79.5846 50.308 79.2827 51.011 79.2461C51.849 79.1932 52.6899 79.2103 53.525 79.2971C53.6376 79.3288 53.7402 79.3887 53.8231 79.4712C53.9061 79.5536 53.9666 79.6557 53.999 79.768C54.0398 80.5251 53.9106 81.2818 53.621 81.9824C53.3313 82.683 52.8885 83.3099 52.325 83.8171C52.261 83.8751 52.15 83.882 51.937 83.956C52.01 83.656 52.05 83.4462 52.112 83.2412C52.33 82.5302 52.597 81.8301 52.769 81.1091C52.916 80.4921 52.741 80.2361 52.107 80.2011C51.326 80.1561 50.54 80.237 49.755 80.259H49.202L49.156 80.091Z" fill="white"/>
<path d="M0.895996 0H140.118V5.644H0.895996V0Z" fill="white"/>
</svg>
